# xmcd
#
# Track frame offsets: 
#        150
#        16757
#        35385
#        53982
#
# Disc length: 893 seconds
#
# Revision: 0
# Processed by: cddbd v1.5.1PL0 Copyright (c) Steve Scherf et al.
# Submitted via: ExactAudioCopy v0.95a5
#
DISCID=26037b04
DTITLE=Morrissey - First Of The Gang To Die
DYEAR=2004
DGENRE=Rock
TTITLE0=First of the Gang to Die
TTITLE1=Teenage Dad on his Estate
TTITLE2=Mexico
TTITLE3=My Life is a Succession of People Saying Goodbye
EXTD=
EXTT0=
EXTT1=
EXTT2=
EXTT3=
PLAYORDER=
